<svg xmlns="http://www.w3.org/2000/svg" viewBox="0 0 200 200" aria-label="cockroach">
  <ellipse cx="100" cy="115" rx="40" ry="60" fill="currentColor"/>
  <ellipse cx="100" cy="55" rx="22" ry="18" fill="currentColor"/>
  <path d="M 88 42 Q 70 18 50 14" fill="none" stroke="currentColor" stroke-width="5" stroke-linecap="round"/>
  <path d="M 112 42 Q 130 18 150 14" fill="none" stroke="currentColor" stroke-width="5" stroke-linecap="round"/>
  <path d="M 65 90  Q 35 80 18 60" fill="none" stroke="currentColor" stroke-width="5" stroke-linecap="round"/>
  <path d="M 60 120 Q 28 122 12 110" fill="none" stroke="currentColor" stroke-width="5" stroke-linecap="round"/>
  <path d="M 65 150 Q 38 162 26 178" fill="none" stroke="currentColor" stroke-width="5" stroke-linecap="round"/>
  <path d="M 135 90  Q 165 80 182 60" fill="none" stroke="currentColor" stroke-width="5" stroke-linecap="round"/>
  <path d="M 140 120 Q 172 122 188 110" fill="none" stroke="currentColor" stroke-width="5" stroke-linecap="round"/>
  <path d="M 135 150 Q 162 162 174 178" fill="none" stroke="currentColor" stroke-width="5" stroke-linecap="round"/>
  <line x1="100" y1="75" x2="100" y2="170" stroke="rgba(0,0,0,0.35)" stroke-width="3"/>
</svg>
