<svg xmlns="http://www.w3.org/2000/svg" viewBox="0 0 1200 630" width="1200" height="630">
  <rect width="1200" height="630" fill="#0a0a0a"/>
  <g transform="translate(420,95) scale(2)" fill="#f97316" stroke="#f97316" stroke-width="5" stroke-linecap="round">
    <ellipse cx="100" cy="115" rx="40" ry="60" stroke="none"/>
    <ellipse cx="100" cy="55" rx="22" ry="18" stroke="none"/>
    <path d="M 88 42 Q 70 18 50 14" fill="none"/>
    <path d="M 112 42 Q 130 18 150 14" fill="none"/>
    <path d="M 65 90  Q 35 80 18 60" fill="none"/>
    <path d="M 60 120 Q 28 122 12 110" fill="none"/>
    <path d="M 65 150 Q 38 162 26 178" fill="none"/>
    <path d="M 135 90  Q 165 80 182 60" fill="none"/>
    <path d="M 140 120 Q 172 122 188 110" fill="none"/>
    <path d="M 135 150 Q 162 162 174 178" fill="none"/>
  </g>
  <text x="600" y="540" text-anchor="middle" fill="#f4f4f5" font-family="system-ui,-apple-system,Segoe UI,sans-serif" font-size="56" font-weight="800" letter-spacing="-1">cockroach</text>
  <text x="600" y="590" text-anchor="middle" fill="#9ca3af" font-family="system-ui,-apple-system,Segoe UI,sans-serif" font-size="24" font-weight="400">a public network for civic signal · owned by no one</text>
</svg>
